<svg fill="#000000" xmlns="http://www.w3.org/2000/svg" viewBox="0 0 24 24" width="48px" height="48px">
    <path d="M 10 2 L 10 5 L 11.75 5 L 11.5 5.15625 L 6.5 8.15625 L 6 8.4375 L 6 11 L 5 11 L 5 14 L 6.15625 14 L 5.875 14.21875 L 3.375 16.21875 L 3 16.53125 L 3 19 L 2 19 L 2 22 L 6 22 L 6 19 L 5 19 L 5 17.46875 L 6.5 16.28125 L 8 17.46875 L 8 19 L 7 19 L 7 22 L 11 22 L 11 19 L 10 19 L 10 16.53125 L 9.625 16.21875 L 7.125 14.21875 L 6.84375 14 L 9 14 L 9 11 L 8 11 L 8 9.53125 L 12 7.15625 L 16 9.53125 L 16 11 L 15 11 L 15 14 L 17.15625 14 L 16.875 14.21875 L 14.375 16.21875 L 14 16.53125 L 14 19 L 13 19 L 13 22 L 17 22 L 17 19 L 16 19 L 16 17.46875 L 17.5 16.28125 L 19 17.46875 L 19 19 L 18 19 L 18 22 L 22 22 L 22 19 L 21 19 L 21 16.53125 L 20.625 16.21875 L 18.125 14.21875 L 17.84375 14 L 19 14 L 19 11 L 18 11 L 18 8.4375 L 17.5 8.15625 L 12.5 5.15625 L 12.25 5 L 14 5 L 14 2 Z"/>
</svg>