<?xml version="1.0" encoding="UTF-8"?>
<svg xmlns="http://www.w3.org/2000/svg" viewBox="0 0 64 64" width="64px" height="64px">
    <g>
        <path
                d="M 32.109375 57.96875 C 22.3125 57.96875 12.910156 52.40625 8.507812 42.957031 C 2.445312 29.964844 8.089844 14.464844 21.082031 8.402344 C 27.378906 5.46875 34.4375 5.160156 40.964844 7.535156 C 47.488281 9.910156 52.699219 14.683594 55.632812 20.980469 C 61.695312 33.972656 56.050781 49.472656 43.058594 55.53125 C 39.515625 57.183594 35.785156 57.96875 32.109375 57.96875 Z M 32.058594 7.953125 C 28.601562 7.953125 25.15625 8.710938 21.929688 10.21875 C 9.933594 15.808594 4.726562 30.117188 10.316406 42.109375 C 15.910156 54.105469 30.21875 59.3125 42.214844 53.71875 C 54.207031 48.125 59.414062 33.820312 53.820312 21.824219 C 51.109375 16.015625 46.300781 11.605469 40.277344 9.414062 C 37.601562 8.4375 34.824219 7.953125 32.058594 7.953125 Z M 21.503906 9.3125 L 21.515625 9.3125 Z M 40.101562 49.1875 L 40.109375 49.1875 Z M 40.101562 49.1875 "/>
        <path
                d="M 31.652344 52.066406 C 30.824219 52.066406 29.988281 52.015625 29.175781 51.917969 C 26.703125 51.621094 24.84375 49.613281 24.75 47.144531 C 24.601562 43.300781 24.507812 39.234375 24.476562 35.0625 C 24.414062 30.617188 24.410156 26.335938 24.457031 22.339844 C 24.46875 21.015625 25.242188 19.765625 26.433594 19.160156 C 26.941406 18.894531 27.527344 18.746094 28.113281 18.746094 C 29.007812 18.746094 29.859375 19.070312 30.519531 19.652344 C 33.554688 22.28125 36.617188 25.007812 39.617188 27.75 C 42.683594 30.511719 45.699219 33.316406 48.582031 36.082031 C 50.304688 37.730469 50.605469 40.398438 49.304688 42.429688 C 47.164062 45.761719 44.128906 48.414062 40.523438 50.097656 C 37.71875 51.402344 34.734375 52.066406 31.652344 52.066406 Z M 20.371094 47.574219 C 20.652344 43.394531 20.871094 39.164062 21.023438 34.988281 C 21.105469 33.195312 21.15625 31.402344 21.210938 29.613281 L 21.214844 29.441406 C 21.246094 28.339844 21.28125 27.238281 21.320312 26.136719 C 21.34375 25.632812 21.347656 25.054688 21.351562 24.445312 C 21.363281 23.390625 21.375 22.296875 21.484375 21.425781 C 21.800781 19.328125 23.175781 17.433594 25.054688 16.496094 C 25.992188 15.996094 27.070312 15.730469 28.164062 15.730469 C 29.207031 15.730469 30.242188 15.972656 31.148438 16.433594 C 32.0625 16.890625 32.996094 17.710938 33.90625 18.511719 C 34.292969 18.851562 34.667969 19.179688 35.019531 19.460938 C 35.734375 20.054688 36.449219 20.652344 37.164062 21.253906 C 38.714844 22.550781 40.269531 23.851562 41.84375 25.128906 C 45.109375 27.816406 48.378906 30.425781 51.558594 32.878906 C 51.890625 29.371094 51.273438 25.820312 49.773438 22.609375 C 46.503906 15.59375 39.375 11.0625 31.617188 11.0625 C 28.691406 11.0625 25.859375 11.691406 23.195312 12.933594 C 13.199219 17.597656 8.859375 29.519531 13.519531 39.515625 C 15.039062 42.773438 17.410156 45.5625 20.367188 47.574219 C 20.367188 47.574219 20.371094 47.574219 20.371094 47.574219 Z M 20.371094 47.574219 "/>
    </g>
</svg>
