<?xml version="1.0"?><svg fill="#000000" xmlns="http://www.w3.org/2000/svg"  viewBox="0 0 24 24" width="48px" height="48px">    <path d="M 12 2 A 2 2 0 0 0 10 4 A 2 2 0 0 0 11 5.7304688 L 11 8 L 8 8 C 5.794 8 4 9.794 4 12 L 4 16 L 2 16 L 2 18 L 4 18 L 4 20 C 4 21.103 4.897 22 6 22 L 18 22 C 19.103 22 20 21.103 20 20 L 20 18 L 22 18 L 22 16 L 20 16 L 20 12 C 20 9.794 18.206 8 16 8 L 13 8 L 13 5.7285156 A 2 2 0 0 0 14 4 A 2 2 0 0 0 12 2 z M 8.5 12 C 9.328 12 10 12.672 10 13.5 C 10 14.328 9.328 15 8.5 15 C 7.672 15 7 14.328 7 13.5 C 7 12.672 7.672 12 8.5 12 z M 15.5 12 C 16.328 12 17 12.672 17 13.5 C 17 14.328 16.328 15 15.5 15 C 14.672 15 14 14.328 14 13.5 C 14 12.672 14.672 12 15.5 12 z M 9 18 L 15 18 L 15 20 L 9 20 L 9 18 z"/></svg>