<?xml version="1.0"?><svg fill="#000000" xmlns="http://www.w3.org/2000/svg"  viewBox="0 0 24 24" width="48px" height="48px">    <path d="M 12 3 C 9.709 3 7.5608125 4.1379062 6.2578125 6.0039062 C 2.7848125 6.1319063 5.9211895e-16 8.997 0 12.5 C 0 16.022 2.8184062 18.891234 6.3164062 18.990234 C 6.1184063 18.376234 6 17.714 6 17 L 6 12.763672 L 12 9.7636719 L 18 12.763672 L 18 17 C 18 17.717 17.881641 18.383 17.681641 19 L 18.5 19 C 21.532 19 24 16.533 24 13.5 C 24 10.536 21.643078 8.1119062 18.705078 8.0039062 C 17.839078 5.0559063 15.149 3 12 3 z M 12 12 L 8 14 L 8 17 C 8 20 10.862 21.743 12 22 C 13.138 21.743 16 20 16 17 L 16 14 L 12 12 z"/></svg>