<svg fill="#000000" xmlns="http://www.w3.org/2000/svg"  viewBox="0 0 48 48" width="48px" height="48px"><path d="M 7.5 4 C 6.923 4 6.3984375 4.3306094 6.1484375 4.8496094 C 5.8984375 5.3696094 5.967125 5.9875 6.328125 6.4375 L 10 11.025391 L 10 36.972656 L 6.328125 41.5625 C 5.968125 42.0125 5.8994375 42.628437 6.1484375 43.148438 C 6.3984375 43.668437 6.923 44 7.5 44 L 36.832031 44 C 37.252031 44 37.6545 43.823672 37.9375 43.513672 L 41.605469 39.513672 C 42.008469 39.074672 42.113047 38.440484 41.873047 37.896484 C 41.633047 37.352484 41.095 37 40.5 37 L 19 37 L 19 5.5 C 19 4.671 18.329 4 17.5 4 L 7.5 4 z M 24 6 C 22.977 6 21.98 6.1047187 21 6.2617188 L 21 9.2929688 C 21.973 9.1069688 22.974 9 24 9 C 32.822 9 40 16.178 40 25 C 40 28.783 38.673703 32.258 36.470703 35 L 40.125 35 C 41.936 32.091 43 28.671 43 25 C 43 14.523 34.477 6 24 6 z M 24 11 C 22.97 11 21.968 11.120031 21 11.332031 L 21 35 L 33.779297 35 C 36.379297 32.457 38 28.916 38 25 C 38 17.28 31.72 11 24 11 z M 8 14.794922 C 6.11 17.746922 5 21.243 5 25 C 5 28.757 6.11 32.253078 8 35.205078 L 8 14.794922 z"/></svg>