<?xml version="1.0"?><svg fill="#000000" xmlns="http://www.w3.org/2000/svg"  viewBox="0 0 24 24" width="48px" height="48px">    <path d="M19.629,3.072l-4.66,1.864l-2.966-0.989c0,0,0,0,0-0.001L9.316,3.051c-0.224-0.075-0.468-0.068-0.688,0.02l-5,2 C3.249,5.224,3,5.591,3,6V20c0,0.707,0.714,1.191,1.371,0.929l4.66-1.864l5.65,1.883l0.003,0.001 c0.224,0.075,0.468,0.068,0.688-0.02l5-2C20.751,18.777,21,18.409,21,18V18v-7.415V4.001C21,3.294,20.286,2.81,19.629,3.072z M9,16.946V5.078l0.031-0.013L15,7.055v11.868l-0.031,0.013L9,16.946z"/></svg>