<svg fill="#000000" xmlns="http://www.w3.org/2000/svg"  viewBox="0 0 24 24" width="48px" height="48px"><path d="M 12 2 C 6.488281 2 2 6.488281 2 12 C 2 17.511719 6.488281 22 12 22 C 17.511719 22 22 17.511719 22 12 C 22 6.488281 17.511719 2 12 2 Z M 12 4 C 16.429688 4 20 7.570313 20 12 C 20 16.429688 16.429688 20 12 20 C 7.570313 20 4 16.429688 4 12 C 4 7.570313 7.570313 4 12 4 Z M 12 6 C 8.699219 6 6 8.699219 6 12 C 6 15.300781 8.699219 18 12 18 C 15.300781 18 18 15.300781 18 12 C 18 8.699219 15.300781 6 12 6 Z M 12 8 C 14.222656 8 16 9.777344 16 12 C 16 14.222656 14.222656 16 12 16 C 9.777344 16 8 14.222656 8 12 C 8 9.777344 9.777344 8 12 8 Z M 12 8.40625 L 10.90625 10.5 L 8.59375 10.90625 L 10.3125 12.59375 L 9.90625 14.90625 L 12 13.8125 L 14.09375 14.90625 L 13.6875 12.59375 L 15.40625 10.90625 L 13.09375 10.5 Z"/></svg>