<?xml version="1.0"?><svg fill="#000000" xmlns="http://www.w3.org/2000/svg"  viewBox="0 0 24 24" width="24px" height="24px">    <path d="M 12 2 A 3 3 0 0 0 9 5 A 3 3 0 0 0 11 7.8242188 L 11 10 L 11 11 L 9 11 L 9 13 L 11 13 L 11 17.927734 C 9.670923 17.772956 8.4903116 17.334634 7.6308594 16.720703 C 6.7329391 16.079293 6.1994731 15.304413 6.0488281 14.480469 L 7.5351562 13.744141 L 3.5234375 11.951172 L 2.4648438 16.255859 L 4.2207031 15.386719 C 4.590567 16.564635 5.4059937 17.590453 6.46875 18.349609 C 7.6980591 19.22774 9.268424 19.79043 11 19.949219 L 11 20 L 12 21 L 13 20 L 13 19.949219 C 14.731576 19.79043 16.301941 19.22774 17.53125 18.349609 C 18.594006 17.590453 19.409433 16.564635 19.779297 15.386719 L 21.535156 16.255859 L 20.476562 11.951172 L 16.464844 13.744141 L 17.951172 14.480469 C 17.800527 15.304413 17.26706 16.079293 16.369141 16.720703 C 15.509688 17.334634 14.329077 17.772956 13 17.927734 L 13 13 L 15 13 L 15 11 L 13 11 L 13 10 L 13 7.8261719 A 3 3 0 0 0 15 5 A 3 3 0 0 0 12 2 z"/></svg>