<?xml version="1.0"?><svg fill="#000000" xmlns="http://www.w3.org/2000/svg"  viewBox="0 0 24 24" width="48px" height="48px">    <path d="M 3 5 C 1.897 5 1 5.897 1 7 L 1 18 C 1 19.103 1.897 20 3 20 L 21 20 C 22.103 20 23 19.103 23 18 L 23 7 C 23 5.897 22.103 5 21 5 L 3 5 z M 8.3457031 10 L 9.6464844 10 L 11 15 L 9.9375 15 L 9.6796875 14 L 8.3105469 14 L 8.0527344 15 L 7 15 L 8.3457031 10 z M 12 10 L 13.5 10 C 14.328 10 15 10.672 15 11.5 C 15 12.328 14.328 13 13.5 13 L 13 13 L 13 15 L 12 15 L 12 10 z M 16 10 L 17 10 L 17 15 L 16 15 L 16 10 z M 13 11 L 13 12 L 13.5 12 C 13.776 12 14 11.776 14 11.5 C 14 11.224 13.776 11 13.5 11 L 13 11 z M 8.9921875 11.353516 L 8.5683594 13 L 9.4199219 13 L 8.9921875 11.353516 z"/></svg>