<?xml version="1.0"?><svg fill="#000000" xmlns="http://www.w3.org/2000/svg"  viewBox="0 0 24 24" width="48px" height="48px">    <path d="M 9.7148438 2.3007812 L 8.2851562 3.6992188 L 9.6777344 5.1210938 C 9.260057 5.636562 9 6.2847794 9 7 C 9 7.052956 9.0129152 7.0844865 9.015625 7.1328125 C 8.5230033 7.2727347 8.0696549 7.5201888 7.703125 7.8867188 C 7.3525146 8.2367169 7.0413175 8.6121149 6.7539062 9 L 3 9 L 3 11 L 5.6191406 11 C 5.3519342 11.653018 5.168123 12.324015 5.0761719 13 L 3 13 L 3 15 L 5.0449219 15 C 5.1039452 15.711296 5.2229479 16.380873 5.4042969 17 L 3 17 L 3 19 L 6.3007812 19 C 7.3420013 20.635639 8.9615919 21.677117 11 21.931641 L 11 11 L 13 11 L 13 21.931641 C 15.038408 21.677117 16.657999 20.635639 17.699219 19 L 21 19 L 21 17 L 18.595703 17 C 18.777052 16.380873 18.896055 15.711296 18.955078 15 L 21 15 L 21 13 L 18.917969 13 C 18.821044 12.332557 18.630376 11.658217 18.359375 11 L 21 11 L 21 9 L 17.236328 9 C 16.949689 8.6069491 16.640781 8.2300062 16.296875 7.8867188 C 15.930345 7.5201888 15.476997 7.2727347 14.984375 7.1328125 C 14.987085 7.0844865 15 7.052956 15 7 C 15 6.2847794 14.739943 5.636562 14.322266 5.1210938 L 15.714844 3.6992188 L 14.285156 2.3007812 L 12.566406 4.0566406 C 12.382877 4.0215578 12.193762 4 12 4 C 11.806238 4 11.617123 4.0215578 11.433594 4.0566406 L 9.7148438 2.3007812 z"/></svg>