<?xml version="1.0"?><svg fill="#000000" xmlns="http://www.w3.org/2000/svg"  viewBox="0 0 24 24" width="48px" height="48px">    <path d="M 5 3 C 3.895 3 3 3.895 3 5 L 3 7 L 3 19 C 3 20.093063 3.9069372 21 5 21 L 19 21 C 20.093063 21 21 20.093063 21 19 L 21 6 L 21 5 C 21 3.895 20.105 3 19 3 L 5 3 z M 5 7 L 19 7 L 19 19 L 5 19 L 5 7 z M 10 9.7929688 L 6.7929688 13 L 10 16.207031 L 11 15.207031 L 8.7929688 13 L 11 10.792969 L 10 9.7929688 z M 14 9.7929688 L 13 10.792969 L 15.207031 13 L 13 15.207031 L 14 16.207031 L 17.207031 13 L 14 9.7929688 z"/></svg>