<svg fill="#000000" xmlns="http://www.w3.org/2000/svg"  viewBox="0 0 24 24" width="48px" height="48px"><path d="M 14.453125 11.960938 L 10.476563 7.980469 L 11.890625 6.566406 L 14.453125 9.132813 L 20.1875 3.398438 C 19.851563 3.152344 19.445313 3 19 3 L 4 3 C 2.898438 3 2 3.898438 2 5 L 2 20 C 2 21.101563 2.898438 22 4 22 L 19 22 C 20.101563 22 21 21.101563 21 20 L 21 5.414063 Z M 6.5 20 C 5.097656 20 4.1875 19.238281 4.03125 18 C 4.03125 18 6 18 6.5 18 C 6.933594 18 7 17.6875 7 17.5 C 7 17.222656 6.777344 17 6.5 17 C 5.121094 17 4 15.878906 4 14.5 C 4 13.121094 5.121094 12 6.5 12 C 7.933594 12 8.785156 12.96875 8.960938 14 C 8.960938 14 6.949219 14 6.5 14 C 6.222656 14 6 14.222656 6 14.5 C 6 14.777344 6.222656 15 6.5 15 C 7.878906 15 9 16.121094 9 17.5 C 9 18.925781 7.925781 20 6.5 20 Z M 13 18 L 15.816406 18 C 15.402344 19.160156 14.300781 20 13 20 C 11.347656 20 10 18.652344 10 17 C 10 15.347656 11.347656 14 13 14 C 14.652344 14 16 15.347656 16 17 L 12 17 C 12 17.550781 12.449219 18 13 18 Z"/></svg>