<?xml version="1.0"?><svg fill="#000000" xmlns="http://www.w3.org/2000/svg"  viewBox="0 0 24 24" width="48px" height="48px">    <path d="M 7 1 C 5.895 1 5 1.895 5 3 L 5 21 C 5 22.105 5.895 23 7 23 L 17 23 C 18.105 23 19 22.105 19 21 L 19 3 C 19 1.895 18.105 1 17 1 L 7 1 z M 7 3 L 17 3 L 17 13 L 7 13 L 7 3 z M 9 5 L 9 7 L 15 7 L 15 5 L 9 5 z M 9 9 L 9 11 L 15 11 L 15 9 L 9 9 z M 12 16.5 C 12.828 16.5 13.5 17.172 13.5 18 C 13.5 18.828 12.828 19.5 12 19.5 C 11.172 19.5 10.5 18.828 10.5 18 C 10.5 17.172 11.172 16.5 12 16.5 z"/></svg>