<?xml version="1.0"?><svg fill="#000000" xmlns="http://www.w3.org/2000/svg"  viewBox="0 0 24 24" width="48px" height="48px">    <path d="M 12 2 C 6.486 2 2 6.486 2 12 C 2 17.514 6.486 22 12 22 C 13.426 22 14.772 21.680672 16 21.138672 L 16 20.439453 C 15.674 20.146453 15.372234 19.826703 15.115234 19.470703 C 14.416234 18.490703 14 17.296 14 16 C 14 12.686 16.686 10 20 10 C 20.643 10 21.26275 10.104016 21.84375 10.291016 C 21.02975 5.5900156 16.93 2 12 2 z M 7.1015625 5.6875 L 10 8.5859375 C 9.439 8.9579375 8.9579375 9.439 8.5859375 10 L 5.6894531 7.1015625 C 6.1004531 6.5735625 6.5735625 6.0985 7.1015625 5.6875 z M 12 10 C 13.105 10 14 10.895 14 12 C 14 13.105 13.105 14 12 14 C 10.895 14 10 13.105 10 12 C 10 10.895 10.895 10 12 10 z M 20 12 C 17.791 12 16 13.791 16 16 C 16 17.476729 16.809396 18.752382 18 19.445312 L 18 24 L 20 23 L 22 24 L 22 19.445312 C 23.190604 18.752382 24 17.476729 24 16 C 24 13.791 22.209 12 20 12 z M 20 14 C 21.105 14 22 14.895 22 16 C 22 17.105 21.105 18 20 18 C 18.895 18 18 17.105 18 16 C 18 14.895 18.895 14 20 14 z"/></svg>