<svg fill="#000000" xmlns="http://www.w3.org/2000/svg"  viewBox="0 0 24 24" width="48px" height="48px"><path d="M 4 2 C 3.476563 2 2.941406 2.183594 2.5625 2.5625 C 2.183594 2.941406 2 3.476563 2 4 L 2 14 C 2 14.523438 2.183594 15.058594 2.5625 15.4375 C 2.941406 15.816406 3.476563 16 4 16 L 5 16 L 5 14 L 4 14 L 4 4 L 16 4 L 16 7 L 18 7 L 18 4 C 18 3.476563 17.816406 2.941406 17.4375 2.5625 C 17.058594 2.183594 16.523438 2 16 2 Z M 8 8 C 7.476563 8 6.941406 8.183594 6.5625 8.5625 C 6.183594 8.941406 6 9.476563 6 10 L 6 20 C 6 20.523438 6.183594 21.058594 6.5625 21.4375 C 6.941406 21.816406 7.476563 22 8 22 L 20 22 C 20.523438 22 21.058594 21.816406 21.4375 21.4375 C 21.816406 21.058594 22 20.523438 22 20 L 22 10 C 22 9.476563 21.816406 8.941406 21.4375 8.5625 C 21.058594 8.183594 20.523438 8 20 8 Z M 8 10 L 20 10 L 20 20 L 8 20 Z"/></svg>