<svg fill="#000000" xmlns="http://www.w3.org/2000/svg"  viewBox="0 0 24 24" width="48px" height="48px"><path d="M 5.5800781 3 C 4.8645322 3 4.1986614 3.3857207 3.84375 4.0078125 L 1.6308594 7.8789062 C 1.242851 8.3232 1 8.8958395 1 9.5292969 L 1 18.470703 C 1 19.865703 2.1390625 21 3.5390625 21 L 7.8984375 21 C 8.8674375 21 9.7439531 20.420344 10.126953 19.527344 L 11.113281 17.558594 C 11.256281 17.219594 11.589031 17 11.957031 17 C 12.325031 17 12.657734 17.218594 12.802734 17.558594 L 13.876953 19.527344 C 14.256953 20.420344 15.133516 21 16.103516 21 L 20.462891 21 C 21.862891 21 23.001953 19.864703 23.001953 18.470703 L 23.001953 9.5292969 C 23.001639 9.0908595 22.877861 8.6841604 22.679688 8.3242188 L 22.693359 8.3164062 L 20.152344 3.9863281 C 19.793924 3.3770139 19.135783 3 18.427734 3 L 5.5800781 3 z M 5.5800781 5 L 18.427734 5 L 18.427734 5.0019531 L 19.601562 7 L 4.4375 7 L 5.5800781 5 z M 7 12 C 8.105 12 9 12.895 9 14 C 9 15.105 8.105 16 7 16 C 5.895 16 5 15.105 5 14 C 5 12.895 5.895 12 7 12 z M 17 12 C 18.105 12 19 12.895 19 14 C 19 15.105 18.105 16 17 16 C 15.895 16 15 15.105 15 14 C 15 12.895 15.895 12 17 12 z"/></svg>